HIERARCHY
ROOT Hips
{
  OFFSET 28.6816 95.0512 -23.9036
  CHANNELS 6 Xposition Yposition Zposition Zrotation Xrotation Yrotation
  JOINT ToSpine
  {
    OFFSET -2.69724 7.43032 -0.144315
    CHANNELS 3 Zrotation Xrotation Yrotation
    JOINT Spine
    {
      OFFSET -0.0310711 10.7595 1.96963
      CHANNELS 3 Zrotation Xrotation Yrotation
      JOINT Spine1
      {
        OFFSET 13.1342 3.43533 0.764692
        CHANNELS 3 Zrotation Xrotation Yrotation
        JOINT Neck
        {
          OFFSET 29.8703 7.82586 -0.130764
          CHANNELS 3 Zrotation Xrotation Yrotation
          JOINT Head
          {
            OFFSET 9.52751 0.295786 -0.907742
            CHANNELS 3 Zrotation Xrotation Yrotation
            End Site
            {
              OFFSET 16.4037 0.713936 2.7358
            }
          }
        }
        JOINT LeftShoulder
        {
          OFFSET 27.5574 4.95586 2.47156
          CHANNELS 3 Zrotation Xrotation Yrotation
          JOINT LeftArm
          {
            OFFSET 1.20734 -0.998971 20.1238
            CHANNELS 3 Zrotation Xrotation Yrotation
            JOINT LeftForeArm
            {
              OFFSET 26.8049 -0.0536703 -0.155908
              CHANNELS 3 Zrotation Xrotation Yrotation
              JOINT LeftHand
              {
                OFFSET 26.6817 0 0.320147
                CHANNELS 3 Zrotation Xrotation Yrotation
                End Site
                {
                  OFFSET 18.6119 0 0.382219
                }
              }
            }
          }
        }
        JOINT RightShoulder
        {
          OFFSET 27.5927 4.71444 -2.65209
          CHANNELS 3 Zrotation Xrotation Yrotation
          JOINT RightArm
          {
            OFFSET 2.83739 -1.17114 -18.7564
            CHANNELS 3 Zrotation Xrotation Yrotation
            JOINT RightForeArm
            {
              OFFSET 28.839 -0.0548439 1.22491
              CHANNELS 3 Zrotation Xrotation Yrotation
              JOINT RightHand
              {
                OFFSET 26.5114 0 -0.101894
                CHANNELS 3 Zrotation Xrotation Yrotation
                End Site
                {
                  OFFSET 18.2168 0 0
                }
              }
            }
          }
        }
      }
    }
  }
  JOINT LeftUpLeg
  {
    OFFSET -4.76168 -1.9167 -10.2353
    CHANNELS 3 Zrotation Xrotation Yrotation
    JOINT LeftLeg
    {
      OFFSET 2.55951 -42.0585 -8.02213
      CHANNELS 3 Zrotation Xrotation Yrotation
      JOINT LeftFoot
      {
        OFFSET 3.16357 -42.5282 -3.95426
        CHANNELS 3 Zrotation Xrotation Yrotation
        JOINT LeftToeBase
        {
          OFFSET 0.346054 -6.02161 12.8035
          CHANNELS 3 Zrotation Xrotation Yrotation
          End Site
          {
            OFFSET 0.134235 -1.35082 5.13018
          }
        }
      }
    }
  }
  JOINT RightUpLeg
  {
    OFFSET -4.94151 -1.41743 10.6446
    CHANNELS 3 Zrotation Xrotation Yrotation
    JOINT RightLeg
    {
      OFFSET -2.56294 -42.0364 -7.94377
      CHANNELS 3 Zrotation Xrotation Yrotation
      JOINT RightFoot
      {
        OFFSET -3.0952 -42.555 -4.02241
        CHANNELS 3 Zrotation Xrotation Yrotation
        JOINT RightToeBase
        {
          OFFSET -0.0828122 -6.13587 12.8035
          CHANNELS 3 Zrotation Xrotation Yrotation
          End Site
          {
            OFFSET -0.131328 -1.35082 5.13018
          }
        }
      }
    }
  }
}
MOTION
Frames:	6
Frame Time:	0.0333333
27.7052 97.1347 -21.7046 58.6883 -38.8396 -24.8808 -70.1915 0 88.8779 87.9331 71.8211 0.418528 3.16996 20.6837 3.41185 -120.147 28.5335 164.937 -172.408 70.714 -139.234 0.296048 -15.3197 -24.5723 -68.9154 20.9636 -143.354 34.4438 -1.59963 -91.6441 0.420957 0.000575232 0.35866 -2.5277 7.92965 46.0481 -96.8816 0.146912 99.628 13.4259 3.66381 104.652 0.58676 0.000331107 0.0646651 -49.2924 3.84875 104.538 -2.20926 32.1744 -5.69906 -2.12461 -6.42803 -0.439679 3.9917 -9.8856 6.50714 -43.1774 -6.67062 77.2131 5.94134 23.779 -29.9727 -11.873 -8.44921 1.46918 0.851872 -0.651231 -4.96916 
28.185 97.1418 -22.2765 60.4174 -37.4651 -22.4549 -70.1915 0 88.8779 86.6496 71.9554 1.2904 3.20987 20.6195 4.20236 -119.817 28.8414 163.371 -172.646 71.4754 -140.077 0.279751 -15.4698 -24.4522 -68.7591 21.9171 -144.956 34.83 -1.75394 -91.8209 0.420957 0.000575232 0.35866 -2.42679 7.54049 46.3899 -100.432 1.20483 98.592 12.9127 2.95057 102.333 0.58676 0.000331107 0.0646651 -50.2159 3.58062 103.648 -2.33595 31.2199 -6.0614 -1.47779 -6.83264 -0.525485 3.97808 -9.84881 6.38445 -44.2251 -7.14598 76.3044 6.02779 23.8058 -31.1425 -11.336 -8.04727 1.45062 0.924993 -1.08074 -5.25419 
28.5595 97.0345 -22.9101 61.8136 -36.1517 -20.0948 -70.1915 0 88.8779 86.3835 72.0251 0.989599 2.72159 20.3535 5.46159 -119.605 29.0413 161.967 -172.374 72.1199 -141.374 0.314616 -15.3212 -24.1715 -68.4258 23.2563 -146.152 35.2909 -2.17585 -92.3735 0.420957 0.000575232 0.35866 -2.3937 7.53586 45.9866 -104.119 1.38299 97.7495 13.5627 2.39359 99.527 0.58676 0.000331107 0.0646651 -50.4093 3.51618 102.087 -2.3171 31.4586 -7.18028 -1.18531 -7.49424 -0.60534 4.07496 -10.1394 7.04861 -44.9061 -7.61231 74.5764 6.03235 24.3681 -31.0641 -10.9765 -7.79927 1.43483 1.0535 -1.44009 -5.98166 
28.9506 96.8937 -23.5616 63.16 -35.162 -18.1002 -70.1915 0 88.8779 86.1014 72.186 0.699049 2.54518 20.3027 6.2546 -119.243 29.2437 160.407 -173.068 72.7646 -141.552 0.331539 -15.2725 -23.9575 -68.6202 24.3775 -146.916 34.8913 -2.17497 -92.4214 0.420957 0.000575232 0.35866 -2.34515 7.3541 46.13 -107.802 1.73364 97.173 13.7013 1.63649 96.4625 0.58676 0.000331107 0.0646651 -50.5782 3.49422 100.87 -2.31274 32.3269 -8.5858 -0.800111 -8.13821 -0.685721 4.10638 -10.3021 7.68845 -45.3469 -8.76905 71.0688 5.65805 26.1549 -27.6185 -8.92415 -8.13378 1.30093 1.35446 -0.511424 -8.25414 
29.3036 96.7609 -24.2255 64.2525 -34.578 -16.8487 -70.1915 0 88.8779 86.3393 72.5289 -0.180067 2.09003 20.5726 6.54896 -118.355 29.3435 158.822 -174.106 73.3687 -141.203 0.324941 -15.3315 -23.9201 -68.7801 25.0523 -147.244 36.0282 -2.4413 -92.6504 0.420957 0.000575232 0.35866 -2.36716 7.24595 46.8919 -111.065 2.39587 96.508 13.5177 0.926843 93.3515 0.58676 0.000331107 0.0646651 -50.8564 3.2237 100.374 -2.34507 32.8906 -9.07005 -0.406825 -8.85096 -0.768298 3.97418 -10.0917 7.82316 -45.4707 -11.1913 64.254 3.8618 29.0085 -22.3188 -10.0925 -7.18304 1.38595 0.771521 -3.1023 -3.12263 
29.549 96.6535 -24.9475 65.0178 -34.254 -15.9536 -70.1915 0 88.8779 87.3876 72.8159 -1.71643 1.44031 20.8526 6.61135 -117.703 29.3356 157.521 -173.979 73.8552 -141.984 0.385586 -14.9907 -23.6328 -69.0411 25.9294 -147.186 35.3074 -3.00633 -93.5285 0.420957 0.000575232 0.35866 -2.43027 7.16651 48.0858 -114.081 3.37952 96.6308 12.9714 -7.87477e-016 90 0.58676 0.000331107 0.0646651 -50.6707 2.89326 99.9028 -2.39844 33.8314 -9.12548 0.266411 -9.20389 -0.829772 3.99956 -10.2877 8.74232 -44.8154 -13.6502 58.2705 1.0387 32.8046 -14.657 -11.4604 -5.03911 1.51854 0.904999 -7.30816 0.118878 
